<svg xmlns="http://www.w3.org/2000/svg" id="Layer_1" viewBox="0 0 600 600" width="600" height="600"><style>.st0{fill:url(#SVGID_1_)}.st1{fill:url(#SVGID_2_)}.st2{fill:url(#SVGID_3_)}.st3{fill:url(#SVGID_4_)}.st4{fill:url(#SVGID_5_)}.st5{fill:url(#SVGID_6_)}.st6{fill:url(#SVGID_7_)}.st7{fill:url(#SVGID_8_)}.st8{fill:url(#SVGID_9_)}.st9{fill:url(#SVGID_10_)}.st10{fill:url(#SVGID_11_)}.st11{fill:url(#SVGID_12_)}.st12{fill:url(#SVGID_13_)}.st13{fill:url(#SVGID_14_)}.st14{fill:url(#SVGID_15_)}.st15{fill:url(#SVGID_16_)}.st16{fill:url(#SVGID_17_)}.st17{fill:url(#SVGID_18_)}</style><linearGradient id="SVGID_1_" x1="86.12" x2="517.17" y1="323.27" y2="323.27" gradientUnits="userSpaceOnUse"><stop offset="0" stop-color="#ffe259"/><stop offset="1" stop-color="#ffa751"/></linearGradient><path d="M486.38 126.87H116.91c-17 0-30.79 13.79-30.79 30.79v247.19c0 16.52 13.39 29.92 29.92 29.92h201.01c4.96 0 11.88 2.87 15.39 6.37l70.6 70.6c6.57 6.57 12.95 7.94 17.13 7.94 9.65 0 20.03-7.3 20.03-23.34v-61.58h46.18c17 0 30.79-13.79 30.79-30.79V157.66c0-16.98-13.81-30.79-30.79-30.79m10.96 286.65l-57.84-1.35c-17 0-22.94 2.99-22.94 20l-1.27 61.39-60.53-64.57c-8.47-8.47-27.71-14.8-39.68-14.8l-208.5 1.35V145.16h390.78v268.36z" class="st0"/><linearGradient id="SVGID_2_" x1="178.49" x2="424.8" y1="280.82" y2="280.82" gradientUnits="userSpaceOnUse"><stop offset="0" stop-color="#ffe259"/><stop offset="1" stop-color="#ffa751"/></linearGradient><path d="M178.49 265.42h246.32v30.79H178.49z" class="st1"/><linearGradient id="SVGID_3_" x1="178.49" x2="332.43" y1="342.39" y2="342.39" gradientUnits="userSpaceOnUse"><stop offset="0" stop-color="#ffe259"/><stop offset="1" stop-color="#ffa751"/></linearGradient><path d="M178.49 327h153.95v30.79H178.49z" class="st2"/><linearGradient id="SVGID_4_" x1="178.49" x2="424.8" y1="219.24" y2="219.24" gradientUnits="userSpaceOnUse"><stop offset="0" stop-color="#ffe259"/><stop offset="1" stop-color="#ffa751"/></linearGradient><path d="M178.49 203.84h246.32v30.79H178.49z" class="st3"/></svg>