<svg xmlns="http://www.w3.org/2000/svg" id="Layer_1" viewBox="0 0 600 600" width="600" height="600"><style>.st0{fill:url(#SVGID_1_)}.st1{fill:url(#SVGID_2_)}.st2{fill:url(#SVGID_3_)}.st3{fill:url(#SVGID_4_)}.st4{fill:url(#SVGID_5_)}.st5{fill:url(#SVGID_6_)}.st6{fill:url(#SVGID_7_)}.st7{fill:url(#SVGID_8_)}.st8{fill:url(#SVGID_9_)}.st9{fill:url(#SVGID_10_)}.st10{fill:url(#SVGID_11_)}.st11{fill:url(#SVGID_12_)}.st12{fill:url(#SVGID_13_)}.st13{fill:url(#SVGID_14_)}.st14{fill:url(#SVGID_15_)}.st15{fill:url(#SVGID_16_)}.st16{fill:url(#SVGID_17_)}.st17{fill:url(#SVGID_18_)}</style><linearGradient id="SVGID_1_" x1="233.14" x2="366.84" y1="192.7" y2="192.7" gradientUnits="userSpaceOnUse"><stop offset="0" stop-color="#1d976c"/><stop offset="1" stop-color="#93f9b9"/></linearGradient><path d="M366.84 192.7c0-36.86-29.99-66.85-66.85-66.85s-66.85 29.99-66.85 66.85 29.99 66.85 66.85 66.85 66.85-29.99 66.85-66.85zm-66.85 49.93c-27.53 0-49.93-22.4-49.93-49.93s22.4-49.94 49.93-49.94 49.94 22.4 49.94 49.94c0 27.53-22.4 49.93-49.94 49.93z" class="st0"/><linearGradient id="SVGID_2_" x1="20.87" x2="579.12" y1="295.68" y2="295.68" gradientUnits="userSpaceOnUse"><stop offset="0" stop-color="#1d976c"/><stop offset="1" stop-color="#93f9b9"/></linearGradient><path d="M578.53 493.97l-74.76-190.52a8.45 8.45 0 0 0-7.87-5.37H368.17c21.35-32.23 39.97-70.08 39.97-104.09 0-59.63-48.51-108.14-108.14-108.14s-108.14 48.51-108.14 108.14c0 33.45 18.94 71.54 40.52 104.09H104.1c-3.48 0-6.61 2.14-7.87 5.37L21.45 493.97a8.494 8.494 0 0 0 .89 7.85 8.453 8.453 0 0 0 6.98 3.7h541.33c2.8 0 5.42-1.39 6.99-3.7a8.38 8.38 0 0 0 .89-7.85zM299.99 102.76c50.31 0 91.22 40.92 91.22 91.22 0 60.53-69.97 139.62-91.17 162.19-21.17-22.87-91.28-103.14-91.28-162.19.01-50.3 40.93-91.22 91.23-91.22zm-6.01 271.61c1.57 1.6 3.72 2.5 5.98 2.51h.03c2.24 0 4.38-.88 5.97-2.46 2.02-2.01 26.12-26.19 50.4-59.44h15.44l35.77 173.62H192.55l35.77-173.62h15.84c24.08 33.09 47.81 57.36 49.82 59.39zm-184.12-59.38h101.19l-35.77 173.62H41.74l68.12-173.62zm314.98 173.62l-35.77-173.62h101.07l68.12 173.62H424.84z" class="st1"/></svg>