<svg xmlns="http://www.w3.org/2000/svg" id="Layer_1" viewBox="0 0 600 600" width="600" height="600"><style>.st0{fill:url(#SVGIDSPEAKER_1_)}.st1{fill:url(#SVGIDSPEAKER_2_)}.st2{fill:url(#SVGIDSPEAKER_3_)}.st3{fill:url(#SVGIDSPEAKER_4_)}.st4{fill:url(#SVGIDSPEAKER_5_)}.st5{fill:url(#SVGIDSPEAKER_6_)}.st6{fill:url(#SVGIDSPEAKER_7_)}.st7{fill:url(#SVGIDSPEAKER_8_)}.st8{fill:url(#SVGIDSPEAKER_9_)}.st9{fill:url(#SVGIDSPEAKER_10_)}.st10{fill:url(#SVGIDSPEAKER_11_)}.st11{fill:url(#SVGIDSPEAKER_12_)}.st12{fill:url(#SVGIDSPEAKER_13_)}.st13{fill:url(#SVGIDSPEAKER_14_)}.st14{fill:url(#SVGIDSPEAKER_15_)}.st15{fill:url(#SVGIDSPEAKER_16_)}.st16{fill:url(#SVGIDSPEAKER_17_)}.st17{fill:url(#SVGIDSPEAKER_18_)}</style><linearGradient id="SVGIDSPEAKER_1_" x1="135.42" x2="464.58" y1="383.57" y2="383.57" gradientUnits="userSpaceOnUse"><stop offset="0" stop-color="#ffe259"/><stop offset="1" stop-color="#ffa751"/></linearGradient><path d="M452.82 216.54c-6.5 0-11.77 5.27-11.77 11.77v73.52c0 77.78-63.28 141.05-141.05 141.05S158.95 379.6 158.95 301.83v-73.52c0-6.5-5.27-11.77-11.77-11.77s-11.77 5.27-11.77 11.77v73.52c0 86.8 67.54 158.11 152.82 164.16v61.08h-60.86c-6.5 0-11.77 5.27-11.77 11.77s5.27 11.77 11.77 11.77h145.26c6.5 0 11.77-5.27 11.77-11.77s-5.27-11.77-11.77-11.77h-60.86v-61.08c85.28-6.05 152.82-77.36 152.82-164.16v-73.52c0-6.5-5.27-11.77-11.77-11.77z" class="st0"/><linearGradient id="SVGIDSPEAKER_2_" x1="194.61" x2="405.39" y1="228.31" y2="228.31" gradientUnits="userSpaceOnUse"><stop offset="0" stop-color="#ffe259"/><stop offset="1" stop-color="#ffa751"/></linearGradient><path d="M307.84 49.4h-15.68c-53.79 0-97.55 43.76-97.55 97.55v162.72c0 53.79 43.76 97.55 97.55 97.55h15.68c53.79 0 97.55-43.76 97.55-97.55V146.95c0-53.79-43.76-97.55-97.55-97.55zm74.02 128.09h-42.65c-6.5 0-11.77 5.27-11.77 11.77s5.27 11.77 11.77 11.77h42.65v32.75h-42.65c-6.5 0-11.77 5.27-11.77 11.77s5.27 11.77 11.77 11.77h42.65v32.75h-42.65c-6.5 0-11.77 5.27-11.77 11.77s5.27 11.77 11.77 11.77h42.55c-2.05 39-34.42 70.09-73.91 70.09h-15.68c-39.5 0-71.87-31.1-73.91-70.09h42.55c6.5 0 11.77-5.27 11.77-11.77s-5.27-11.77-11.77-11.77h-42.65v-32.75h42.65c6.5 0 11.77-5.27 11.77-11.77s-5.27-11.77-11.77-11.77h-42.65v-32.75h42.65c6.5 0 11.77-5.27 11.77-11.77s-5.27-11.77-11.77-11.77h-42.65v-30.54c0-29.33 17.15-54.73 41.95-66.71v33.27c0 6.5 5.27 11.77 11.77 11.77s11.77-5.27 11.77-11.77V73.44c2.8-.32 29.95-.32 32.75 0v40.07c0 6.5 5.27 11.77 11.77 11.77s11.77-5.27 11.77-11.77V80.24c24.8 11.97 41.95 37.37 41.95 66.7v30.55z" class="st1"/></svg>