<svg xmlns="http://www.w3.org/2000/svg" id="Layer_1" viewBox="0 0 600 600" width="600" height="600"><style>.st0{fill:url(#SVGIDTICKET_1_)}.st1{fill:url(#SVGIDTICKET_2_)}.st2{fill:url(#SVGIDTICKET_3_)}.st3{fill:url(#SVGIDTICKET_4_)}.st4{fill:url(#SVGIDTICKET_5_)}.st5{fill:url(#SVGIDTICKET_6_)}.st6{fill:url(#SVGIDTICKET_7_)}.st7{fill:url(#SVGIDTICKET_8_)}.st8{fill:url(#SVGIDTICKET_9_)}.st9{fill:url(#SVGIDTICKET_10_)}.st10{fill:url(#SVGIDTICKET_11_)}.st11{fill:url(#SVGIDTICKET_12_)}.st12{fill:url(#SVGIDTICKET_13_)}.st13{fill:url(#SVGIDTICKET_14_)}.st14{fill:url(#SVGIDTICKET_15_)}.st15{fill:url(#SVGIDTICKET_16_)}.st16{fill:url(#SVGIDTICKET_17_)}.st17{fill:url(#SVGIDTICKET_18_)}</style><linearGradient id="SVGIDTICKET_1_" x1="26.7" x2="563.11" y1="290.47" y2="290.47" gradientTransform="rotate(12.864 279.915 299.94)" gradientUnits="userSpaceOnUse"><stop offset="0" stop-color="#c0392b"/><stop offset="1" stop-color="#8e44ad"/></linearGradient><path d="M548.98 219.83a8.85 8.85 0 0 0-10.71-3.54c-28.42 11.06-60.69.34-76.83-25.54-16.35-26.02-12.08-59.07 10.39-80.36a8.855 8.855 0 0 0 1.41-11.13L455.6 71.19c-15.94-25.3-49.37-32.9-74.68-16.98L43.9 266.81c-25.2 15.95-32.77 49.27-16.94 74.55l13.43 21.38a8.85 8.85 0 0 0 11.5 3.19c29.09-14.76 64.63-4.92 81.98 22.7s10.79 63.91-15.13 83.7a8.849 8.849 0 0 0-2.12 11.74l20.53 32.68c15.92 25.27 49.29 32.89 74.6 17.03l337.4-211.98c25.3-15.9 32.93-49.3 17.03-74.6l-17.2-27.37zm-9.24 86.99L202.34 518.8c-17.03 10.67-39.48 5.55-50.19-11.46l-16.46-26.19c28.22-26.45 33.74-69.19 13.17-101.94s-61.48-46.33-97.55-32.38l-9.36-14.89c-10.65-17.01-5.55-39.42 11.4-50.16L390.42 69.15c17.03-10.67 39.48-5.55 50.19 11.46l13.94 22.19c-24.06 27.05-27.36 66.74-8.1 97.39 19.26 30.65 56.44 44.9 91.25 34.97l13.48 21.46c10.71 17.03 5.58 39.5-11.44 50.2z" class="st0"/><linearGradient id="SVGIDTICKET_2_" x1="108.04" x2="481.15" y1="290.43" y2="290.43" gradientTransform="rotate(12.864 279.915 299.94)" gradientUnits="userSpaceOnUse"><stop offset="0" stop-color="#c0392b"/><stop offset="1" stop-color="#8e44ad"/></linearGradient><path d="M369.23 121.88c-2.6-4.14-8.07-5.39-12.2-2.79L112.51 272.72c-4.14 2.6-5.39 8.07-2.79 12.21L223.48 466c2.6 4.14 8.07 5.39 12.21 2.79l244.52-153.62a8.848 8.848 0 0 0 2.79-12.2L369.23 121.88zM233.77 449.09L129.42 283l38.08-23.92 104.35 166.09-38.08 23.92zm53.07-33.35L182.49 249.66l176.46-110.87 104.34 166.09-176.45 110.86z" class="st1"/><linearGradient id="SVGIDTICKET_3_" x1="250.1" x2="374.13" y1="272.97" y2="272.97" gradientTransform="rotate(12.864 279.915 299.94)" gradientUnits="userSpaceOnUse"><stop offset="0" stop-color="#c0392b"/><stop offset="1" stop-color="#8e44ad"/></linearGradient><path d="M313.5 218.13a8.85 8.85 0 0 0-15.39 3.88l-6.91 32.19-30.44 12.55a8.864 8.864 0 0 0-5.46 7.59 8.834 8.834 0 0 0 4.39 8.25l28.48 16.53 2.53 32.83a8.85 8.85 0 0 0 14.74 5.91l24.52-21.98 32.01 7.74c3.27.79 6.71-.34 8.87-2.93a8.864 8.864 0 0 0 1.3-9.26l-13.32-30.11 17.25-28.05a8.853 8.853 0 0 0-.04-9.35 8.84 8.84 0 0 0-8.4-4.09l-32.76 3.37-21.37-25.07zm38.08 41.15l-10.29 16.74a8.867 8.867 0 0 0-.56 8.22l7.95 17.97-19.1-4.62c-2.83-.69-5.82.06-7.99 2.01l-14.63 13.12-1.51-19.59a8.85 8.85 0 0 0-4.38-6.98l-16.99-9.86 18.17-7.49a8.832 8.832 0 0 0 5.27-6.32l4.13-19.21 12.73 14.96a8.852 8.852 0 0 0 7.65 3.07l19.55-2.02z" class="st2"/></svg>