<svg xmlns="http://www.w3.org/2000/svg" id="Layer_1" viewBox="0 0 600 600" width="600" height="600"><style>.st0{fill:url(#SVGID_1_)}.st1{fill:url(#SVGID_2_)}.st2{fill:url(#SVGID_3_)}.st3{fill:url(#SVGID_4_)}.st4{fill:url(#SVGID_5_)}.st5{fill:url(#SVGID_6_)}.st6{fill:url(#SVGID_7_)}.st7{fill:url(#SVGID_8_)}.st8{fill:url(#SVGID_9_)}.st9{fill:url(#SVGID_10_)}.st10{fill:url(#SVGID_11_)}.st11{fill:url(#SVGID_12_)}.st12{fill:url(#SVGID_13_)}.st13{fill:url(#SVGID_14_)}.st14{fill:url(#SVGID_15_)}.st15{fill:url(#SVGID_16_)}.st16{fill:url(#SVGID_17_)}.st17{fill:url(#SVGID_18_)}</style><linearGradient id="SVGID_1_" x1="107.17" x2="290.58" y1="231.03" y2="231.03" gradientUnits="userSpaceOnUse"><stop offset="0" stop-color="#ff4b1f"/><stop offset="1" stop-color="#ff9068"/></linearGradient><path d="M198.88 319.51c50.56 0 91.71-39.69 91.71-88.48s-41.14-88.48-91.71-88.48-91.71 39.69-91.71 88.48 41.14 88.48 91.71 88.48m.15-159.88c37.93 0 74.45 33.22 74.45 69.82s-36.67 74.83-74.6 74.83-73.91-36.65-73.91-73.25 36.13-71.4 74.06-71.4" class="st0"/><linearGradient id="SVGID_2_" x1="75.23" x2="322.52" y1="407.98" y2="407.98" gradientUnits="userSpaceOnUse"><stop offset="0" stop-color="#ff4b1f"/><stop offset="1" stop-color="#ff9068"/></linearGradient><path d="M321.85 460.93l-28.83-111.25c-2.82-10.89-13.72-19.11-25.37-19.11H130.1c-11.65 0-22.55 8.22-25.37 19.11L75.9 460.94c-1.58 6.14-.31 12.35 3.5 17.07 3.81 4.7 9.76 7.4 16.31 7.4h206.34c6.56 0 12.51-2.7 16.31-7.4 3.8-4.72 5.08-10.93 3.49-17.08m-54.19 2.35c-.71 0-1.93-1-2.04-1.67l-9.58-55.45-22.61 3.65 9.24 53.47H155.1l9.23-53.47-22.61-3.65-9.58 55.46c-.11.66-1.33 1.66-2.04 1.66H98.93l28.05-108.25c.25-.96 2.09-2.34 3.12-2.34h137.56c1.03 0 2.87 1.38 3.12 2.36l28.05 108.24h-31.17z" class="st1"/><linearGradient id="SVGID_3_" x1="317.98" x2="504.82" y1="224.73" y2="224.73" gradientUnits="userSpaceOnUse"><stop offset="0" stop-color="#ff4b1f"/><stop offset="1" stop-color="#ff9068"/></linearGradient><path d="M411.4 314.86c51.51 0 93.42-40.44 93.42-90.13s-41.91-90.13-93.42-90.13-93.42 40.44-93.42 90.13 41.91 90.13 93.42 90.13m.16-162.87c38.64 0 75.84 33.84 75.84 71.12s-37.36 76.23-76 76.23-75.29-37.34-75.29-74.62 36.8-72.73 75.45-72.73" class="st2"/><linearGradient id="SVGID_4_" x1="285.44" x2="537.35" y1="404.99" y2="404.99" gradientUnits="userSpaceOnUse"><stop offset="0" stop-color="#ff4b1f"/><stop offset="1" stop-color="#ff9068"/></linearGradient><path d="M536.67 458.92L507.3 345.59c-2.87-11.1-13.98-19.47-25.84-19.47H341.33c-11.86 0-22.97 8.37-25.84 19.47l-29.37 113.34c-1.61 6.25-.32 12.58 3.56 17.38 3.88 4.79 9.94 7.54 16.62 7.54h210.19c6.68 0 12.74-2.75 16.62-7.54 3.88-4.79 5.17-11.12 3.56-17.39m-55.21 2.4c-.72 0-1.96-1.01-2.08-1.7l-9.76-56.49-23.03 3.72 9.41 54.47h-89.2l9.4-54.47-23.03-3.72-9.76 56.5c-.12.68-1.35 1.69-2.08 1.69h-31.75l28.57-110.28c.26-.98 2.13-2.39 3.18-2.39h140.13c1.05 0 2.92 1.41 3.18 2.4l28.57 110.26h-31.75z" class="st3"/></svg>