<svg xmlns="http://www.w3.org/2000/svg" xmlns:xlink="http://www.w3.org/1999/xlink"><symbol id="sprite-balloon" viewBox="0 0 600 600"><title>balloon</title><style/><linearGradient id="SVGIDBALLOON_1_" x1="86.12" x2="517.17" y1="323.27" y2="323.27" gradientUnits="userSpaceOnUse"><stop offset="0" stop-color="#ffe259"/><stop offset="1" stop-color="#ffa751"/></linearGradient><path d="M486.38 126.87H116.91c-17 0-30.79 13.79-30.79 30.79v247.19c0 16.52 13.39 29.92 29.92 29.92h201.01c4.96 0 11.88 2.87 15.39 6.37l70.6 70.6c6.57 6.57 12.95 7.94 17.13 7.94 9.65 0 20.03-7.3 20.03-23.34v-61.58h46.18c17 0 30.79-13.79 30.79-30.79V157.66c0-16.98-13.81-30.79-30.79-30.79m10.96 286.65l-57.84-1.35c-17 0-22.94 2.99-22.94 20l-1.27 61.39-60.53-64.57c-8.47-8.47-27.71-14.8-39.68-14.8l-208.5 1.35V145.16h390.78v268.36z" fill="url(#SVGIDBALLOON_1_)"/><linearGradient id="SVGIDBALLOON_2_" x1="178.49" x2="424.8" y1="280.82" y2="280.82" gradientUnits="userSpaceOnUse"><stop offset="0" stop-color="#ffe259"/><stop offset="1" stop-color="#ffa751"/></linearGradient><path d="M178.49 265.42h246.32v30.79H178.49z" fill="url(#SVGIDBALLOON_2_)"/><linearGradient id="SVGIDBALLOON_3_" x1="178.49" x2="332.43" y1="342.39" y2="342.39" gradientUnits="userSpaceOnUse"><stop offset="0" stop-color="#ffe259"/><stop offset="1" stop-color="#ffa751"/></linearGradient><path d="M178.49 327h153.95v30.79H178.49z" fill="url(#SVGIDBALLOON_3_)"/><linearGradient id="SVGIDBALLOON_4_" x1="178.49" x2="424.8" y1="219.24" y2="219.24" gradientUnits="userSpaceOnUse"><stop offset="0" stop-color="#ffe259"/><stop offset="1" stop-color="#ffa751"/></linearGradient><path d="M178.49 203.84h246.32v30.79H178.49z" fill="url(#SVGIDBALLOON_4_)"/></symbol><use xlink:href="#sprite-balloon" width="600" height="600"/><view id="sprite-balloon-fragment" viewBox="0 0 600 600"/><symbol id="sprite-location" viewBox="0 0 600 600"><title>location</title><style/><linearGradient id="SVGIDLOCATION_1_" x1="233.14" x2="366.84" y1="192.7" y2="192.7" gradientUnits="userSpaceOnUse"><stop offset="0" stop-color="#1d976c"/><stop offset="1" stop-color="#93f9b9"/></linearGradient><path d="M366.84 192.7c0-36.86-29.99-66.85-66.85-66.85s-66.85 29.99-66.85 66.85 29.99 66.85 66.85 66.85 66.85-29.99 66.85-66.85zm-66.85 49.93c-27.53 0-49.93-22.4-49.93-49.93s22.4-49.94 49.93-49.94 49.94 22.4 49.94 49.94c0 27.53-22.4 49.93-49.94 49.93z" fill="url(#SVGIDLOCATION_1_)"/><linearGradient id="SVGIDLOCATION_2_" x1="20.87" x2="579.12" y1="295.68" y2="295.68" gradientUnits="userSpaceOnUse"><stop offset="0" stop-color="#1d976c"/><stop offset="1" stop-color="#93f9b9"/></linearGradient><path d="M578.53 493.97l-74.76-190.52a8.45 8.45 0 0 0-7.87-5.37H368.17c21.35-32.23 39.97-70.08 39.97-104.09 0-59.63-48.51-108.14-108.14-108.14s-108.14 48.51-108.14 108.14c0 33.45 18.94 71.54 40.52 104.09H104.1c-3.48 0-6.61 2.14-7.87 5.37L21.45 493.97a8.494 8.494 0 0 0 .89 7.85 8.453 8.453 0 0 0 6.98 3.7h541.33c2.8 0 5.42-1.39 6.99-3.7a8.38 8.38 0 0 0 .89-7.85zM299.99 102.76c50.31 0 91.22 40.92 91.22 91.22 0 60.53-69.97 139.62-91.17 162.19-21.17-22.87-91.28-103.14-91.28-162.19.01-50.3 40.93-91.22 91.23-91.22zm-6.01 271.61c1.57 1.6 3.72 2.5 5.98 2.51h.03c2.24 0 4.38-.88 5.97-2.46 2.02-2.01 26.12-26.19 50.4-59.44h15.44l35.77 173.62H192.55l35.77-173.62h15.84c24.08 33.09 47.81 57.36 49.82 59.39zm-184.12-59.38h101.19l-35.77 173.62H41.74l68.12-173.62zm314.98 173.62l-35.77-173.62h101.07l68.12 173.62H424.84z" fill="url(#SVGIDLOCATION_2_)"/></symbol><use xlink:href="#sprite-location" y="600" width="600" height="600"/><view id="sprite-location-fragment" viewBox="0 600 600 600"/><symbol id="sprite-speaker" viewBox="0 0 600 600"><title>speaker</title><style/><linearGradient id="SVGIDSPEAKER_1_" x1="135.42" x2="464.58" y1="383.57" y2="383.57" gradientUnits="userSpaceOnUse"><stop offset="0" stop-color="#ffe259"/><stop offset="1" stop-color="#ffa751"/></linearGradient><path d="M452.82 216.54c-6.5 0-11.77 5.27-11.77 11.77v73.52c0 77.78-63.28 141.05-141.05 141.05S158.95 379.6 158.95 301.83v-73.52c0-6.5-5.27-11.77-11.77-11.77s-11.77 5.27-11.77 11.77v73.52c0 86.8 67.54 158.11 152.82 164.16v61.08h-60.86c-6.5 0-11.77 5.27-11.77 11.77s5.27 11.77 11.77 11.77h145.26c6.5 0 11.77-5.27 11.77-11.77s-5.27-11.77-11.77-11.77h-60.86v-61.08c85.28-6.05 152.82-77.36 152.82-164.16v-73.52c0-6.5-5.27-11.77-11.77-11.77z" fill="url(#SVGIDSPEAKER_1_)"/><linearGradient id="SVGIDSPEAKER_2_" x1="194.61" x2="405.39" y1="228.31" y2="228.31" gradientUnits="userSpaceOnUse"><stop offset="0" stop-color="#ffe259"/><stop offset="1" stop-color="#ffa751"/></linearGradient><path d="M307.84 49.4h-15.68c-53.79 0-97.55 43.76-97.55 97.55v162.72c0 53.79 43.76 97.55 97.55 97.55h15.68c53.79 0 97.55-43.76 97.55-97.55V146.95c0-53.79-43.76-97.55-97.55-97.55zm74.02 128.09h-42.65c-6.5 0-11.77 5.27-11.77 11.77s5.27 11.77 11.77 11.77h42.65v32.75h-42.65c-6.5 0-11.77 5.27-11.77 11.77s5.27 11.77 11.77 11.77h42.65v32.75h-42.65c-6.5 0-11.77 5.27-11.77 11.77s5.27 11.77 11.77 11.77h42.55c-2.05 39-34.42 70.09-73.91 70.09h-15.68c-39.5 0-71.87-31.1-73.91-70.09h42.55c6.5 0 11.77-5.27 11.77-11.77s-5.27-11.77-11.77-11.77h-42.65v-32.75h42.65c6.5 0 11.77-5.27 11.77-11.77s-5.27-11.77-11.77-11.77h-42.65v-32.75h42.65c6.5 0 11.77-5.27 11.77-11.77s-5.27-11.77-11.77-11.77h-42.65v-30.54c0-29.33 17.15-54.73 41.95-66.71v33.27c0 6.5 5.27 11.77 11.77 11.77s11.77-5.27 11.77-11.77V73.44c2.8-.32 29.95-.32 32.75 0v40.07c0 6.5 5.27 11.77 11.77 11.77s11.77-5.27 11.77-11.77V80.24c24.8 11.97 41.95 37.37 41.95 66.7v30.55z" fill="url(#SVGIDSPEAKER_2_)"/></symbol><use xlink:href="#sprite-speaker" y="1200" width="600" height="600"/><view id="sprite-speaker-fragment" viewBox="0 1200 600 600"/><symbol id="sprite-sponsor" viewBox="0 0 600 600"><title>sponsor</title><style/><linearGradient id="SVGIDSPONSOR_1_" x1="18.53" x2="235.68" y1="311.05" y2="311.05" gradientUnits="userSpaceOnUse"><stop offset="0" stop-color="#ff4b1f"/><stop offset="1" stop-color="#ff9068"/></linearGradient><path d="M194.12 416.32c-1.44 0-2.89-.35-4.29-1.05L127.1 383.9l-62.72 31.37c-1.41.71-2.85 1.05-4.29 1.05-2.45 0-4.73-1.05-6.26-2.89-1.65-1.98-2.27-4.61-1.77-7.41l12.54-69-43.26-43.08c-2.56-2.56-3.43-5.92-2.34-9 1.1-3.09 3.91-5.14 7.52-5.5l62.04-6.21 30.86-62.37c1.59-3.18 4.47-5.08 7.7-5.08s6.11 1.9 7.7 5.08l31.37 62.72 61.53 5.86c3.6.36 6.41 2.41 7.52 5.5 1.1 3.08.22 6.45-2.34 9l-43.35 43.35 12.63 68.73c.51 2.8-.12 5.43-1.77 7.41a8.248 8.248 0 0 1-6.29 2.89m-67.02-46.11c1.57 0 3.91.23 6.17 1.36l53.49 26.74-10.7-58.84c-.74-4.08.79-8.99 3.73-11.92l35.51-35.51-50.99-5.1c-4.24-.43-8.54-3.39-10.45-7.2l-26.74-53.49-26.74 53.49c-1.91 3.81-6.2 6.77-10.45 7.2l-50.99 5.1 35.51 35.51c2.94 2.93 4.46 7.85 3.73 11.93l-10.7 58.83 53.49-26.74c2.22-1.13 4.55-1.36 6.13-1.36" fill="url(#SVGIDSPONSOR_1_)"/><linearGradient id="SVGIDSPONSOR_2_" x1="361.97" x2="579.12" y1="311.05" y2="311.05" gradientUnits="userSpaceOnUse"><stop offset="0" stop-color="#ff4b1f"/><stop offset="1" stop-color="#ff9068"/></linearGradient><path d="M537.57 416.32c-1.44 0-2.89-.35-4.29-1.05l-62.73-31.37-62.72 31.37c-1.41.71-2.85 1.05-4.29 1.05-2.45 0-4.73-1.05-6.26-2.89-1.65-1.98-2.27-4.61-1.77-7.41l12.55-69-43.26-43.08c-2.56-2.56-3.43-5.92-2.34-9 1.1-3.09 3.91-5.14 7.52-5.5l62.04-6.21 30.86-62.37c1.59-3.18 4.47-5.08 7.7-5.08 3.23 0 6.11 1.9 7.7 5.08l31.37 62.72 61.53 5.86c3.6.36 6.41 2.41 7.52 5.5 1.1 3.08.22 6.45-2.34 9l-43.35 43.35 12.63 68.73c.51 2.8-.12 5.43-1.77 7.41a8.315 8.315 0 0 1-6.3 2.89m-67.03-46.11c1.57 0 3.91.23 6.17 1.36l53.49 26.74-10.7-58.84c-.74-4.08.79-8.99 3.73-11.92l35.51-35.51-50.99-5.1c-4.24-.43-8.54-3.39-10.45-7.2l-26.74-53.49-26.74 53.49c-1.91 3.81-6.2 6.77-10.45 7.2l-50.99 5.1 35.51 35.51c2.94 2.93 4.46 7.85 3.73 11.93l-10.7 58.83 53.49-26.74c2.23-1.13 4.55-1.36 6.13-1.36" fill="url(#SVGIDSPONSOR_2_)"/><linearGradient id="SVGIDSPONSOR_3_" x1="197.37" x2="414.51" y1="269.71" y2="269.71" gradientUnits="userSpaceOnUse"><stop offset="0" stop-color="#ff4b1f"/><stop offset="1" stop-color="#ff9068"/></linearGradient><path d="M372.96 374.98c-1.44 0-2.89-.35-4.29-1.05l-62.73-31.37-62.72 31.37c-1.41.71-2.85 1.05-4.29 1.05-2.45 0-4.73-1.05-6.26-2.89-1.65-1.98-2.27-4.61-1.77-7.41l12.54-69-43.26-43.08c-2.56-2.56-3.43-5.92-2.34-9 1.1-3.09 3.91-5.14 7.52-5.5l62.04-6.21 30.86-62.37c1.59-3.18 4.47-5.08 7.7-5.08 3.23 0 6.11 1.9 7.7 5.08l31.37 62.72 61.53 5.86c3.6.36 6.41 2.41 7.52 5.5 1.1 3.08.22 6.45-2.34 9l-43.35 43.35L381 364.68c.51 2.8-.12 5.43-1.77 7.41-1.55 1.84-3.84 2.89-6.27 2.89m-67.03-46.1c1.57 0 3.91.23 6.17 1.36l53.49 26.74-10.7-58.84c-.74-4.08.79-8.99 3.73-11.92l35.51-35.51-50.99-5.1c-4.24-.43-8.54-3.39-10.45-7.2l-26.74-53.49-26.74 53.49c-1.91 3.81-6.2 6.77-10.45 7.2l-50.99 5.1 35.51 35.51c2.94 2.93 4.46 7.85 3.73 11.93l-10.7 58.83 53.49-26.74c2.23-1.13 4.55-1.36 6.13-1.36" fill="url(#SVGIDSPONSOR_3_)"/></symbol><use xlink:href="#sprite-sponsor" y="1800" width="600" height="600"/><view id="sprite-sponsor-fragment" viewBox="0 1800 600 600"/><symbol id="sprite-ticket" viewBox="0 0 600 600"><title>ticket</title><style/><linearGradient id="SVGIDTICKET_1_" x1="26.7" x2="563.11" y1="290.47" y2="290.47" gradientTransform="rotate(12.864 279.915 299.94)" gradientUnits="userSpaceOnUse"><stop offset="0" stop-color="#c0392b"/><stop offset="1" stop-color="#8e44ad"/></linearGradient><path d="M548.98 219.83a8.85 8.85 0 0 0-10.71-3.54c-28.42 11.06-60.69.34-76.83-25.54-16.35-26.02-12.08-59.07 10.39-80.36a8.855 8.855 0 0 0 1.41-11.13L455.6 71.19c-15.94-25.3-49.37-32.9-74.68-16.98L43.9 266.81c-25.2 15.95-32.77 49.27-16.94 74.55l13.43 21.38a8.85 8.85 0 0 0 11.5 3.19c29.09-14.76 64.63-4.92 81.98 22.7s10.79 63.91-15.13 83.7a8.849 8.849 0 0 0-2.12 11.74l20.53 32.68c15.92 25.27 49.29 32.89 74.6 17.03l337.4-211.98c25.3-15.9 32.93-49.3 17.03-74.6l-17.2-27.37zm-9.24 86.99L202.34 518.8c-17.03 10.67-39.48 5.55-50.19-11.46l-16.46-26.19c28.22-26.45 33.74-69.19 13.17-101.94s-61.48-46.33-97.55-32.38l-9.36-14.89c-10.65-17.01-5.55-39.42 11.4-50.16L390.42 69.15c17.03-10.67 39.48-5.55 50.19 11.46l13.94 22.19c-24.06 27.05-27.36 66.74-8.1 97.39 19.26 30.65 56.44 44.9 91.25 34.97l13.48 21.46c10.71 17.03 5.58 39.5-11.44 50.2z" fill="url(#SVGIDTICKET_1_)"/><linearGradient id="SVGIDTICKET_2_" x1="108.04" x2="481.15" y1="290.43" y2="290.43" gradientTransform="rotate(12.864 279.915 299.94)" gradientUnits="userSpaceOnUse"><stop offset="0" stop-color="#c0392b"/><stop offset="1" stop-color="#8e44ad"/></linearGradient><path d="M369.23 121.88c-2.6-4.14-8.07-5.39-12.2-2.79L112.51 272.72c-4.14 2.6-5.39 8.07-2.79 12.21L223.48 466c2.6 4.14 8.07 5.39 12.21 2.79l244.52-153.62a8.848 8.848 0 0 0 2.79-12.2L369.23 121.88zM233.77 449.09L129.42 283l38.08-23.92 104.35 166.09-38.08 23.92zm53.07-33.35L182.49 249.66l176.46-110.87 104.34 166.09-176.45 110.86z" fill="url(#SVGIDTICKET_2_)"/><linearGradient id="SVGIDTICKET_3_" x1="250.1" x2="374.13" y1="272.97" y2="272.97" gradientTransform="rotate(12.864 279.915 299.94)" gradientUnits="userSpaceOnUse"><stop offset="0" stop-color="#c0392b"/><stop offset="1" stop-color="#8e44ad"/></linearGradient><path d="M313.5 218.13a8.85 8.85 0 0 0-15.39 3.88l-6.91 32.19-30.44 12.55a8.864 8.864 0 0 0-5.46 7.59 8.834 8.834 0 0 0 4.39 8.25l28.48 16.53 2.53 32.83a8.85 8.85 0 0 0 14.74 5.91l24.52-21.98 32.01 7.74c3.27.79 6.71-.34 8.87-2.93a8.864 8.864 0 0 0 1.3-9.26l-13.32-30.11 17.25-28.05a8.853 8.853 0 0 0-.04-9.35 8.84 8.84 0 0 0-8.4-4.09l-32.76 3.37-21.37-25.07zm38.08 41.15l-10.29 16.74a8.867 8.867 0 0 0-.56 8.22l7.95 17.97-19.1-4.62c-2.83-.69-5.82.06-7.99 2.01l-14.63 13.12-1.51-19.59a8.85 8.85 0 0 0-4.38-6.98l-16.99-9.86 18.17-7.49a8.832 8.832 0 0 0 5.27-6.32l4.13-19.21 12.73 14.96a8.852 8.852 0 0 0 7.65 3.07l19.55-2.02z" fill="url(#SVGIDTICKET_3_)"/></symbol><use xlink:href="#sprite-ticket" y="2400" width="600" height="600"/><view id="sprite-ticket-fragment" viewBox="0 2400 600 600"/><symbol id="sprite-volunteer" viewBox="0 0 600 600"><title>volunteer</title><style/><linearGradient id="SVGIDVOLUNTEER_1_" x1="107.17" x2="290.58" y1="231.03" y2="231.03" gradientUnits="userSpaceOnUse"><stop offset="0" stop-color="#ff4b1f"/><stop offset="1" stop-color="#ff9068"/></linearGradient><path d="M198.88 319.51c50.56 0 91.71-39.69 91.71-88.48s-41.14-88.48-91.71-88.48-91.71 39.69-91.71 88.48 41.14 88.48 91.71 88.48m.15-159.88c37.93 0 74.45 33.22 74.45 69.82s-36.67 74.83-74.6 74.83-73.91-36.65-73.91-73.25 36.13-71.4 74.06-71.4" fill="url(#SVGIDVOLUNTEER_1_)"/><linearGradient id="SVGIDVOLUNTEER_2_" x1="75.23" x2="322.52" y1="407.98" y2="407.98" gradientUnits="userSpaceOnUse"><stop offset="0" stop-color="#ff4b1f"/><stop offset="1" stop-color="#ff9068"/></linearGradient><path d="M321.85 460.93l-28.83-111.25c-2.82-10.89-13.72-19.11-25.37-19.11H130.1c-11.65 0-22.55 8.22-25.37 19.11L75.9 460.94c-1.58 6.14-.31 12.35 3.5 17.07 3.81 4.7 9.76 7.4 16.31 7.4h206.34c6.56 0 12.51-2.7 16.31-7.4 3.8-4.72 5.08-10.93 3.49-17.08m-54.19 2.35c-.71 0-1.93-1-2.04-1.67l-9.58-55.45-22.61 3.65 9.24 53.47H155.1l9.23-53.47-22.61-3.65-9.58 55.46c-.11.66-1.33 1.66-2.04 1.66H98.93l28.05-108.25c.25-.96 2.09-2.34 3.12-2.34h137.56c1.03 0 2.87 1.38 3.12 2.36l28.05 108.24h-31.17z" fill="url(#SVGIDVOLUNTEER_2_)"/><linearGradient id="SVGIDVOLUNTEER_3_" x1="317.98" x2="504.82" y1="224.73" y2="224.73" gradientUnits="userSpaceOnUse"><stop offset="0" stop-color="#ff4b1f"/><stop offset="1" stop-color="#ff9068"/></linearGradient><path d="M411.4 314.86c51.51 0 93.42-40.44 93.42-90.13s-41.91-90.13-93.42-90.13-93.42 40.44-93.42 90.13 41.91 90.13 93.42 90.13m.16-162.87c38.64 0 75.84 33.84 75.84 71.12s-37.36 76.23-76 76.23-75.29-37.34-75.29-74.62 36.8-72.73 75.45-72.73" fill="url(#SVGIDVOLUNTEER_3_)"/><linearGradient id="SVGIDVOLUNTEER_4_" x1="285.44" x2="537.35" y1="404.99" y2="404.99" gradientUnits="userSpaceOnUse"><stop offset="0" stop-color="#ff4b1f"/><stop offset="1" stop-color="#ff9068"/></linearGradient><path d="M536.67 458.92L507.3 345.59c-2.87-11.1-13.98-19.47-25.84-19.47H341.33c-11.86 0-22.97 8.37-25.84 19.47l-29.37 113.34c-1.61 6.25-.32 12.58 3.56 17.38 3.88 4.79 9.94 7.54 16.62 7.54h210.19c6.68 0 12.74-2.75 16.62-7.54 3.88-4.79 5.17-11.12 3.56-17.39m-55.21 2.4c-.72 0-1.96-1.01-2.08-1.7l-9.76-56.49-23.03 3.72 9.41 54.47h-89.2l9.4-54.47-23.03-3.72-9.76 56.5c-.12.68-1.35 1.69-2.08 1.69h-31.75l28.57-110.28c.26-.98 2.13-2.39 3.18-2.39h140.13c1.05 0 2.92 1.41 3.18 2.4l28.57 110.26h-31.75z" fill="url(#SVGIDVOLUNTEER_4_)"/></symbol><use xlink:href="#sprite-volunteer" y="3000" width="600" height="600"/><view id="sprite-volunteer-fragment" viewBox="0 3000 600 600"/></svg>